<svg width="156" height="64" viewBox="0 0 156 64" fill="none" xmlns="http://www.w3.org/2000/svg">
<path d="M3.34799 61.4641H0.719986V54.8761L1.69199 54.5521C1.93199 54.3361 2.13599 54.0961 2.30399 53.8321C2.49599 53.5441 2.66399 53.1841 2.80799 52.7521C2.95199 52.3201 3.05999 51.7921 3.13199 51.1681C3.22799 50.5201 3.29999 49.7161 3.34799 48.7561L3.70799 39.2161H13.284V54.4801H14.58V61.4641H11.988V57.0001H3.34799V61.4641ZM10.44 41.7361H6.44399L6.08399 48.8641C6.01199 50.1601 5.90399 51.2761 5.75999 52.2121C5.61599 53.1241 5.37599 53.8801 5.03999 54.4801H10.44V41.7361Z" fill="#03BCFC"/>
<path d="M26.453 54.6241C27.149 54.6241 27.665 54.3961 28.001 53.9401C28.361 53.4601 28.565 52.8001 28.613 51.9601L31.529 52.5001C31.433 54.0361 30.953 55.2121 30.089 56.0281C29.249 56.8441 27.965 57.2521 26.237 57.2521C25.469 57.2521 24.809 57.1561 24.257 56.9641C23.705 56.7481 23.237 56.4841 22.853 56.1721C22.469 55.8361 22.157 55.4641 21.917 55.0561C21.701 54.6481 21.545 54.2401 21.449 53.8321C21.377 53.5441 21.317 53.1841 21.269 52.7521C21.221 52.3201 21.185 51.8521 21.161 51.3481C21.137 50.8201 21.113 50.2921 21.089 49.7641C21.089 49.2361 21.089 48.7441 21.089 48.2881C21.089 47.6881 21.089 47.0881 21.089 46.4881C21.113 45.8641 21.149 45.2761 21.197 44.7241C21.245 44.1721 21.305 43.6681 21.377 43.2121C21.449 42.7321 21.545 42.3361 21.665 42.0241C22.001 41.0881 22.553 40.3441 23.321 39.7921C24.113 39.2401 25.181 38.9641 26.525 38.9641C28.301 38.9641 29.585 39.4561 30.377 40.4401C31.169 41.4241 31.565 42.7801 31.565 44.5081V48.9001H23.933C23.933 49.6921 23.945 50.4721 23.969 51.2401C24.017 52.0081 24.101 52.5961 24.221 53.0041C24.557 54.0841 25.301 54.6241 26.453 54.6241ZM28.685 46.5961V45.0841C28.685 44.6281 28.649 44.1961 28.577 43.7881C28.529 43.3561 28.421 42.9841 28.253 42.6721C28.085 42.3601 27.845 42.1201 27.533 41.9521C27.245 41.7601 26.861 41.6641 26.381 41.6641C25.949 41.6641 25.553 41.7721 25.193 41.9881C24.833 42.1801 24.545 42.5521 24.329 43.1041C24.209 43.4401 24.125 43.8961 24.077 44.4721C24.029 45.0481 23.993 45.7561 23.969 46.5961H28.685Z" fill="#03BCFC"/>
<path d="M38.7801 57.0001V39.2521H41.6241V46.9561H42.8481C43.1601 46.9561 43.4841 46.9321 43.8201 46.8841C44.1561 46.8361 44.4681 46.7281 44.7561 46.5601C45.0681 46.3681 45.3441 46.1041 45.5841 45.7681C45.8481 45.4081 46.0521 44.9401 46.1961 44.3641L47.5641 39.2521H50.3001L48.8961 44.4001C48.6561 45.2641 48.3321 45.9961 47.9241 46.5961C47.5401 47.1721 47.0361 47.5561 46.4121 47.7481C47.2041 47.9401 47.7801 48.3481 48.1401 48.9721C48.5241 49.5961 48.8361 50.3521 49.0761 51.2401L50.6241 57.0001H47.8161L46.5921 52.1041C46.4481 51.5281 46.2681 51.0601 46.0521 50.7001C45.8361 50.3161 45.5841 50.0281 45.2961 49.8361C45.0081 49.6441 44.6841 49.5121 44.3241 49.4401C43.9881 49.3681 43.6281 49.3321 43.2441 49.3321H41.6241V57.0001H38.7801Z" fill="#03BCFC"/>
<path d="M55.8801 55.4881C56.3841 55.1521 56.7921 54.8281 57.1041 54.5161C57.4401 54.2041 57.7041 53.8561 57.8961 53.4721C58.0881 53.0641 58.2201 52.5721 58.2921 51.9961C58.3641 51.4201 58.4001 50.7001 58.4001 49.8361V39.2161H67.8681V57.0001H64.9881V41.7361H60.9921V49.9441C60.9921 51.0721 60.9201 52.0441 60.7761 52.8601C60.6561 53.6521 60.4401 54.3481 60.1281 54.9481C59.8401 55.5481 59.4441 56.0641 58.9401 56.4961C58.4601 56.9041 57.8601 57.2761 57.1401 57.6121L55.8801 55.4881Z" fill="#03BCFC"/>
<path d="M82.4138 55.4521C81.9338 56.1001 81.3818 56.5561 80.7578 56.8201C80.1578 57.0841 79.4738 57.2161 78.7058 57.2161C77.9618 57.2161 77.3378 57.0721 76.8338 56.7841C76.3298 56.4721 75.9218 56.0761 75.6098 55.5961C75.3218 55.0921 75.1058 54.5401 74.9618 53.9401C74.8418 53.3161 74.7818 52.6801 74.7818 52.0321C74.7818 51.3601 74.8538 50.6881 74.9978 50.0161C75.1418 49.3441 75.3938 48.7321 75.7538 48.1801C76.1138 47.6281 76.6058 47.1841 77.2298 46.8481C77.8538 46.4881 78.6578 46.3081 79.6418 46.3081H82.4498V43.9321C82.4498 43.2361 82.2818 42.6841 81.9458 42.2761C81.6338 41.8681 81.0218 41.6641 80.1098 41.6641C79.6298 41.6641 79.1618 41.8081 78.7058 42.0961C78.2498 42.3841 77.9618 42.8521 77.8418 43.5001L75.1418 42.7441C75.4058 41.5681 75.9818 40.6441 76.8698 39.9721C77.7578 39.3001 78.8858 38.9641 80.2538 38.9641C81.8618 38.9641 83.1098 39.3361 83.9978 40.0801C84.8858 40.8001 85.3298 42.0721 85.3298 43.8961V57.0001H82.4498V55.4521H82.4138ZM82.4498 48.7921H80.3618C79.6178 48.7921 78.9578 49.0201 78.3818 49.4761C77.8298 49.9081 77.5538 50.7001 77.5538 51.8521C77.5538 52.6921 77.7338 53.3401 78.0938 53.7961C78.4538 54.2281 79.0178 54.4441 79.7858 54.4441C80.6738 54.4441 81.3338 54.1921 81.7658 53.6881C82.2218 53.1841 82.4498 52.4881 82.4498 51.6001V48.7921Z" fill="#03BCFC"/>
<path d="M98.8776 38.9641C99.1896 38.9641 99.5736 39.0121 100.03 39.1081C100.486 39.1801 100.918 39.3721 101.326 39.6841C101.758 39.9721 102.142 40.4041 102.478 40.9801C102.814 41.5561 103.042 42.3361 103.162 43.3201C103.234 44.0401 103.27 44.7961 103.27 45.5881C103.294 46.3801 103.306 47.1241 103.306 47.8201C103.306 49.1161 103.27 50.3401 103.198 51.4921C103.15 52.6201 102.97 53.6041 102.658 54.4441C102.37 55.2841 101.914 55.9561 101.29 56.4601C100.666 56.9401 99.7896 57.1801 98.6616 57.1801C97.9656 57.1801 97.3656 57.0601 96.8616 56.8201C96.3576 56.5561 95.9376 56.1841 95.6016 55.7041H95.5296V63.9121H92.6856V39.1801H95.5296V40.5481L95.6016 40.5841C95.9856 40.0561 96.3936 39.6601 96.8256 39.3961C97.2576 39.1081 97.9416 38.9641 98.8776 38.9641ZM97.9056 41.7361C97.1136 41.7361 96.5136 42.0001 96.1056 42.5281C95.6976 43.0561 95.4936 43.7281 95.4936 44.5441V51.6001C95.4936 52.4401 95.6856 53.1121 96.0696 53.6161C96.4536 54.1201 97.0656 54.3721 97.9056 54.3721C98.4336 54.3721 98.8536 54.2761 99.1656 54.0841C99.5016 53.8681 99.7536 53.5081 99.9216 53.0041C100.114 52.5001 100.246 51.8401 100.318 51.0241C100.39 50.1841 100.426 49.1521 100.426 47.9281C100.426 46.8241 100.402 45.8881 100.354 45.1201C100.33 44.3281 100.234 43.6801 100.066 43.1761C99.8976 42.6721 99.6456 42.3121 99.3096 42.0961C98.9736 41.8561 98.5056 41.7361 97.9056 41.7361Z" fill="#03BCFC"/>
<path d="M117.895 55.4521C117.415 56.1001 116.863 56.5561 116.239 56.8201C115.639 57.0841 114.955 57.2161 114.187 57.2161C113.443 57.2161 112.819 57.0721 112.315 56.7841C111.811 56.4721 111.403 56.0761 111.091 55.5961C110.803 55.0921 110.587 54.5401 110.443 53.9401C110.323 53.3161 110.263 52.6801 110.263 52.0321C110.263 51.3601 110.335 50.6881 110.479 50.0161C110.623 49.3441 110.875 48.7321 111.235 48.1801C111.595 47.6281 112.087 47.1841 112.711 46.8481C113.335 46.4881 114.139 46.3081 115.123 46.3081H117.931V43.9321C117.931 43.2361 117.763 42.6841 117.427 42.2761C117.115 41.8681 116.503 41.6641 115.591 41.6641C115.111 41.6641 114.643 41.8081 114.187 42.0961C113.731 42.3841 113.443 42.8521 113.323 43.5001L110.623 42.7441C110.887 41.5681 111.463 40.6441 112.351 39.9721C113.239 39.3001 114.367 38.9641 115.735 38.9641C117.343 38.9641 118.591 39.3361 119.479 40.0801C120.367 40.8001 120.811 42.0721 120.811 43.8961V57.0001H117.931V55.4521H117.895ZM117.931 48.7921H115.843C115.099 48.7921 114.439 49.0201 113.863 49.4761C113.311 49.9081 113.035 50.7001 113.035 51.8521C113.035 52.6921 113.215 53.3401 113.575 53.7961C113.935 54.2281 114.499 54.4441 115.267 54.4441C116.155 54.4441 116.815 54.1921 117.247 53.6881C117.703 53.1841 117.931 52.4881 117.931 51.6001V48.7921Z" fill="#03BCFC"/>
<path d="M136.231 57.0001V49.1161H131.551V57.0001H128.635V39.2161H131.551V46.7041H136.231V39.2161H139.147V57.0001H136.231Z" fill="#03BCFC"/>
<path d="M152.063 41.7361V57.0001H149.255V41.7361H145.511V39.2161H155.843V41.7361H152.063Z" fill="#03BCFC"/>
<path d="M6.51599 2.34809V26.0001H4.93199V2.34809H0.179993V0.944092H11.268V2.34809H6.51599Z" fill="#4F4F4F"/>
<path d="M19.4521 17.0721C18.9241 17.0721 18.4321 17.1441 17.9761 17.2881C17.5201 17.4321 17.1241 17.6721 16.7881 18.0081C16.4521 18.3441 16.1881 18.7881 15.9961 19.3401C15.8041 19.8681 15.7081 20.5161 15.7081 21.2841C15.7081 22.2441 15.9481 23.0721 16.4281 23.7681C16.9321 24.4401 17.7961 24.7761 19.0201 24.7761C20.0521 24.7761 20.9041 24.5001 21.5761 23.9481C22.2481 23.3721 22.5841 22.5321 22.5841 21.4281V17.0721H19.4521ZM14.6641 11.0961C15.0001 10.1841 15.5641 9.46409 16.3561 8.93609C17.1481 8.40809 18.1681 8.14409 19.4161 8.14409C20.9281 8.14409 22.0921 8.49209 22.9081 9.18809C23.7241 9.86009 24.1321 11.0721 24.1321 12.8241V26.0001H22.5841V24.4161H22.5481C21.9721 25.2081 21.3121 25.7121 20.5681 25.9281C19.8481 26.1201 19.1401 26.2161 18.4441 26.2161C17.6521 26.2161 16.9801 26.0841 16.4281 25.8201C15.9001 25.5321 15.4681 25.1601 15.1321 24.7041C14.7961 24.2481 14.5441 23.7321 14.3761 23.1561C14.2321 22.5561 14.1601 21.9321 14.1601 21.2841C14.1601 20.6121 14.2321 19.9521 14.3761 19.3041C14.5441 18.6321 14.8201 18.0321 15.2041 17.5041C15.5881 16.9521 16.0921 16.5081 16.7161 16.1721C17.3641 15.8361 18.1681 15.6681 19.1281 15.6681H22.5841V12.8601C22.5841 12.3801 22.5361 11.9481 22.4401 11.5641C22.3441 11.1561 22.1761 10.8081 21.9361 10.5201C21.6961 10.2321 21.3601 10.0041 20.9281 9.83609C20.5201 9.66809 19.9921 9.58409 19.3441 9.58409C18.6481 9.58409 17.9881 9.75209 17.3641 10.0881C16.7401 10.4241 16.3321 10.9281 16.1401 11.6001L14.6641 11.0961Z" fill="#4F4F4F"/>
<path d="M40.8999 12.0681C40.4679 13.0041 40.0359 13.9161 39.6039 14.8041C39.1959 15.6921 38.7879 16.6041 38.3799 17.5401L36.2919 21.9681H35.2119C34.8759 21.2241 34.5399 20.4921 34.2039 19.7721C33.8679 19.0521 33.5319 18.3321 33.1959 17.6121L30.6399 11.9961L30.6039 12.0321V26.0001H29.0559V8.39609H30.5679L35.7879 19.7001H35.8239L41.0799 8.39609H42.5919V26.0001H41.0439V12.0681H40.8999Z" fill="#4F4F4F"/>
<path d="M52.3415 8.14409C53.6615 8.14409 54.6695 8.39609 55.3655 8.90009C56.0615 9.40409 56.5415 10.0401 56.8055 10.8081C56.9255 11.1201 57.0095 11.5401 57.0575 12.0681C57.1295 12.5721 57.1775 13.1361 57.2015 13.7601C57.2495 14.3601 57.2735 14.9841 57.2735 15.6321C57.2735 16.2561 57.2735 16.8441 57.2735 17.3961V17.9361C57.2735 18.5601 57.2615 19.1961 57.2375 19.8441C57.2375 20.4921 57.2015 21.2001 57.1295 21.9681C57.0575 22.8081 56.8535 23.5041 56.5175 24.0561C56.2055 24.6081 55.8095 25.0521 55.3295 25.3881C54.8735 25.7001 54.3695 25.9161 53.8175 26.0361C53.2655 26.1801 52.7255 26.2521 52.1975 26.2521C50.7575 26.2521 49.6775 25.9641 48.9575 25.3881C48.2615 24.7881 47.7815 24.0321 47.5175 23.1201C47.4455 22.8321 47.3855 22.4721 47.3375 22.0401C47.2895 21.5841 47.2535 21.0921 47.2295 20.5641C47.2055 20.0361 47.1935 19.4961 47.1935 18.9441C47.1935 18.3921 47.1935 17.8761 47.1935 17.3961C47.1935 16.7481 47.1935 16.1121 47.1935 15.4881C47.2175 14.8401 47.2415 14.2281 47.2655 13.6521C47.3135 13.0761 47.3735 12.5601 47.4455 12.1041C47.5175 11.6241 47.6015 11.2401 47.6975 10.9521C48.0095 10.1121 48.5375 9.44009 49.2815 8.93609C50.0255 8.40809 51.0455 8.14409 52.3415 8.14409ZM52.3055 9.54809C51.6815 9.54809 51.0815 9.68009 50.5055 9.94409C49.9295 10.1841 49.4975 10.6641 49.2095 11.3841C49.0175 11.8641 48.8975 12.6201 48.8495 13.6521C48.8015 14.6601 48.7775 15.8361 48.7775 17.1801V18.0801C48.7775 19.2321 48.7895 20.2041 48.8135 20.9961C48.8615 21.7881 48.9575 22.4001 49.1015 22.8321C49.3175 23.4801 49.6775 23.9841 50.1815 24.3441C50.7095 24.6801 51.4175 24.8481 52.3055 24.8481C53.0975 24.8481 53.7815 24.6321 54.3575 24.2001C54.9335 23.7681 55.3175 23.1681 55.5095 22.4001C55.6055 21.9921 55.6655 21.3441 55.6895 20.4561C55.7375 19.5681 55.7615 18.6201 55.7615 17.6121C55.7615 17.0841 55.7495 16.5201 55.7255 15.9201C55.7255 15.3201 55.7135 14.7441 55.6895 14.1921C55.6895 13.6401 55.6655 13.1481 55.6175 12.7161C55.5695 12.2601 55.5095 11.9121 55.4375 11.6721C55.2215 10.9521 54.8255 10.4241 54.2495 10.0881C53.6975 9.72809 53.0495 9.54809 52.3055 9.54809Z" fill="#4F4F4F"/>
<path d="M69.5002 26.0001V17.6841H67.2682C66.4282 17.6841 65.7202 17.8641 65.1442 18.2241C64.5682 18.5601 64.1242 19.3161 63.8122 20.4921L62.4442 26.0001H60.8962L62.3722 20.2761C62.6122 19.4121 62.9122 18.6801 63.2722 18.0801C63.6322 17.4561 64.2322 17.0481 65.0722 16.8561C64.4002 16.6641 63.8722 16.2801 63.4882 15.7041C63.1282 15.1041 62.8282 14.3721 62.5882 13.5081L61.2562 8.39609H62.6962L64.1362 13.7601C64.2802 14.3121 64.4842 14.7561 64.7482 15.0921C65.0122 15.4281 65.2882 15.6921 65.5762 15.8841C65.8882 16.0761 66.2122 16.2081 66.5482 16.2801C66.8842 16.3281 67.2202 16.3521 67.5562 16.3521H69.5002V8.39609H71.0482V16.3521H72.9922C73.3042 16.3521 73.6282 16.3281 73.9642 16.2801C74.3242 16.2081 74.6482 16.0761 74.9362 15.8841C75.2482 15.6921 75.5362 15.4281 75.8002 15.0921C76.0642 14.7561 76.2682 14.3121 76.4122 13.7601L77.8522 8.39609H79.2922L77.9602 13.5081C77.7202 14.3721 77.4082 15.1041 77.0242 15.7041C76.6642 16.2801 76.1482 16.6641 75.4762 16.8561C76.3162 17.0481 76.9162 17.4561 77.2762 18.0801C77.6362 18.6801 77.9362 19.4121 78.1762 20.2761L79.6522 26.0001H78.1042L76.7362 20.4921C76.4242 19.3161 75.9802 18.5601 75.4042 18.2241C74.8282 17.8641 74.1202 17.6841 73.2802 17.6841H71.0482V26.0001H69.5002Z" fill="#4F4F4F"/>
<path d="M88.2484 8.14409C89.6884 8.14409 90.8044 8.51609 91.5964 9.26009C92.4124 9.98009 92.8564 11.0241 92.9284 12.3921C92.9524 12.6561 92.9644 12.9201 92.9644 13.1841C92.9644 13.4241 92.9644 13.6761 92.9644 13.9401V17.4321H84.7564V18.5841C84.7564 19.3521 84.7684 20.1561 84.7924 20.9961C84.8404 21.8121 84.9364 22.4241 85.0804 22.8321C85.2964 23.4561 85.6444 23.9481 86.1244 24.3081C86.6044 24.6681 87.2524 24.8481 88.0684 24.8481C89.1484 24.8481 89.9404 24.5361 90.4444 23.9121C90.9724 23.2881 91.2724 22.5201 91.3444 21.6081L92.8924 21.8961C92.7724 23.3121 92.2804 24.3921 91.4164 25.1361C90.5524 25.8801 89.4364 26.2521 88.0684 26.2521C87.3484 26.2521 86.7124 26.1681 86.1604 26.0001C85.6324 25.8081 85.1884 25.5681 84.8284 25.2801C84.4684 24.9921 84.1804 24.6681 83.9644 24.3081C83.7484 23.9241 83.5924 23.5281 83.4964 23.1201C83.4244 22.8321 83.3644 22.4601 83.3164 22.0041C83.2684 21.5481 83.2324 21.0681 83.2084 20.5641C83.2084 20.0361 83.1964 19.4961 83.1724 18.9441C83.1724 18.3921 83.1724 17.8761 83.1724 17.3961C83.1724 16.7481 83.1724 16.1001 83.1724 15.4521C83.1964 14.8041 83.2204 14.1921 83.2444 13.6161C83.2924 13.0401 83.3524 12.5121 83.4244 12.0321C83.4964 11.5521 83.5804 11.1681 83.6764 10.8801C83.9884 10.0401 84.5044 9.38009 85.2244 8.90009C85.9444 8.39609 86.9524 8.14409 88.2484 8.14409ZM85.1524 11.4561C84.9844 11.8641 84.8764 12.4761 84.8284 13.2921C84.8044 14.0841 84.7804 15.0321 84.7564 16.1361H91.4164V13.9401C91.4164 13.3881 91.3804 12.8481 91.3084 12.3201C91.2604 11.7921 91.1164 11.3241 90.8764 10.9161C90.6604 10.5081 90.3364 10.1841 89.9044 9.94409C89.4724 9.70409 88.8964 9.58409 88.1764 9.58409C87.5764 9.58409 87.0004 9.71609 86.4484 9.98009C85.8964 10.2441 85.4644 10.7361 85.1524 11.4561Z" fill="#4F4F4F"/>
<path d="M105.881 26.0001V17.6481H99.2931V26.0001H97.7091V8.39609H99.2931V16.2441H105.881V8.39609H107.501V26.0001H105.881Z" fill="#4F4F4F"/>
<path d="M120.654 26.0001V17.6481H114.066V26.0001H112.482V8.39609H114.066V16.2441H120.654V8.39609H122.274V26.0001H120.654Z" fill="#4F4F4F"/>
<path d="M128.766 24.5241H131.394C132.21 24.5241 132.882 24.4281 133.41 24.2361C133.962 24.0201 134.394 23.7441 134.706 23.4081C135.042 23.0721 135.27 22.6881 135.39 22.2561C135.51 21.8001 135.57 21.3201 135.57 20.8161C135.57 19.7121 135.234 18.8721 134.562 18.2961C133.914 17.6961 132.846 17.3961 131.358 17.3961H128.766V24.5241ZM138.738 26.0001V8.39609H140.322V26.0001H138.738ZM127.254 26.0001V8.39609H128.766V15.9201H131.466C132.57 15.9201 133.482 16.0521 134.202 16.3161C134.922 16.5561 135.498 16.8921 135.93 17.3241C136.362 17.7561 136.662 18.2721 136.83 18.8721C137.022 19.4481 137.118 20.0721 137.118 20.7441C137.118 21.4641 137.034 22.1481 136.866 22.7961C136.698 23.4201 136.41 23.9721 136.002 24.4521C135.594 24.9321 135.018 25.3161 134.274 25.6041C133.554 25.8681 132.642 26.0001 131.538 26.0001H127.254Z" fill="#4F4F4F"/>
<path d="M147.165 1.91609C147.285 2.68409 147.621 3.33209 148.173 3.86009C148.749 4.38809 149.409 4.65209 150.153 4.65209C150.921 4.65209 151.581 4.41209 152.133 3.93209C152.709 3.42809 153.057 2.75609 153.177 1.91609H154.473C154.425 2.37209 154.305 2.84009 154.113 3.32009C153.921 3.77609 153.645 4.20809 153.285 4.61609C152.925 5.00009 152.481 5.32409 151.953 5.58809C151.449 5.82809 150.849 5.94809 150.153 5.94809C149.433 5.94809 148.809 5.82809 148.281 5.58809C147.777 5.32409 147.345 5.00009 146.985 4.61609C146.649 4.20809 146.385 3.76409 146.193 3.28409C146.025 2.80409 145.917 2.34809 145.869 1.91609H147.165ZM154.041 26.0001V11.2401H154.005C152.805 13.6881 151.617 16.1481 150.441 18.6201C149.265 21.0921 148.065 23.5521 146.841 26.0001H145.329V8.39609H146.877V23.1201L154.041 8.39609H155.589V26.0001H154.041Z" fill="#4F4F4F"/>
</svg>
